<?xml version="1.0" encoding="UTF-8" standalone="no"?>
<!-- Created with Inkscape (http://www.inkscape.org/) -->

<svg
   width="210mm"
   height="297mm"
   viewBox="0 0 210 297"
   version="1.1"
   id="svg135"
   xml:space="preserve"
   inkscape:version="1.2.2 (732a01da63, 2022-12-09)"
   sodipodi:docname="enemy.svg"
   xmlns:inkscape="http://www.inkscape.org/namespaces/inkscape"
   xmlns:sodipodi="http://sodipodi.sourceforge.net/DTD/sodipodi-0.dtd"
   xmlns="http://www.w3.org/2000/svg"
   xmlns:svg="http://www.w3.org/2000/svg"><sodipodi:namedview
     id="namedview137"
     pagecolor="#ffffff"
     bordercolor="#000000"
     borderopacity="0.25"
     inkscape:showpageshadow="2"
     inkscape:pageopacity="0.0"
     inkscape:pagecheckerboard="0"
     inkscape:deskcolor="#d1d1d1"
     inkscape:document-units="mm"
     showgrid="false"
     inkscape:zoom="0.73851712"
     inkscape:cx="262.68856"
     inkscape:cy="561.93687"
     inkscape:window-width="1920"
     inkscape:window-height="1009"
     inkscape:window-x="-8"
     inkscape:window-y="-8"
     inkscape:window-maximized="1"
     inkscape:current-layer="layer1" /><defs
     id="defs132"><filter
       id="a"
       color-interpolation-filters="sRGB"
       x="-0.085191711"
       y="-0.086144243"
       width="1.1703834"
       height="1.1722885"><feGaussianBlur
         stdDeviation="3.42208"
         id="feGaussianBlur9258" /></filter></defs><g
     inkscape:label="Capa 1"
     inkscape:groupmode="layer"
     id="layer1"><g
       id="g328"
       transform="matrix(0.18086911,0,0,0.18347158,-52.84076,32.703579)"
       style="stroke-width:1.45244"><g
         transform="matrix(5.3047,0,0,5.3047,-513.64,-682.95)"
         id="g9299"
         style="stroke-width:1.45244"><path
           transform="matrix(0.76998,0,0,0.76998,-100.11,-3.3822)"
           d="m 533.08,235.77 -6.287,1.796 c -0.086,-0.007 -0.309,0.004 -0.445,0 -5.846,-0.174 -11.757,0.393 -17.738,1.797 -11.818,2.772 -23.124,9.48 -32.783,20.657 -11.496,-4.473 -22.335,-3.754 -26.046,2.47 l -3.593,6.062 c -36.886,-7.603 -76.174,8.265 -96.549,42.437 -25.735,43.159 -11.5,98.882 31.659,124.62 43.159,25.734 98.882,11.725 124.62,-31.435 20.391,-34.199 15.745,-76.244 -8.533,-105.08 l 3.593,-6.062 c 3.385,-5.672 -0.087,-14.443 -7.859,-22.005 6.277,-6.647 12.884,-10.234 19.984,-11.899 4.112,-0.965 8.54,-1.148 13.022,-0.899 l 6.737,3.144 1.122,-4.94 3.817,-2.47 -4.041,-6.062 4.939,-6.512 -5.164,-0.898 -0.445,-4.715 z"
           fill-rule="evenodd"
           stroke="#000000"
           stroke-width="13.2524"
           id="path9263" /><path
           d="M 289.52,307.83 A 70.058,70.058 30.806 1 1 169.18,236.073 70.058,70.058 30.806 1 1 289.52,307.83 Z"
           fill="#302d2e"
           fill-rule="evenodd"
           stroke="#000000"
           stroke-width="1.46739"
           id="path9265" /><path
           transform="matrix(0.76998,0,0,0.76998,-100.11,-3.3822)"
           d="m 483.68,263.83 c -14.131,-8.426 -29.279,-8.947 -33.834,-1.308 l -8.893,14.843 c -4.558,7.636 3.178,20.597 17.31,29.023 14.132,8.426 29.329,9.141 33.883,1.501 l 8.893,-14.843 c 4.558,-7.637 -3.226,-20.79 -17.358,-29.216 z"
           fill="#333031"
           fill-rule="evenodd"
           stroke="#000000"
           stroke-width="6.61626"
           id="path9267" /><path
           transform="matrix(0.76998,0,0,0.76998,-100.11,-3.3822)"
           d="m 451.26,259.99 -8.082,13.697 c -0.748,0.029 -1.555,-0.117 -2.254,-0.029 -4.597,0.563 -8.156,2.317 -10.078,5.213 -5.131,7.722 3.636,20.895 19.597,29.447 13.962,7.482 28.813,8.954 35.735,4.025 -3.653,1.19 -8.479,1.014 -13.666,-0.192 0,-0.043 -0.072,-0.099 0,-0.15 l 8.982,-17.489 c -2.591,-0.686 -5.301,-1.716 -7.99,-2.931 l -8.136,17.36 -10.221,-4.654 8.852,-18.195 c -11.155,-8.285 -16.77,-19.343 -12.739,-26.108 z m -73.237,27.153 c -9.559,6.752 -17.945,15.592 -24.326,26.291 -24.398,40.924 -11.02,93.827 29.903,118.23 23.975,14.295 52.08,15.447 76.154,5.862 -14.147,-1.704 -28.206,-6.199 -41.234,-13.967 -47.33,-28.221 -64.302,-87.79 -40.497,-136.42 z"
           fill-opacity="0.48936"
           fill-rule="evenodd"
           id="path9269"
           style="stroke-width:2.21454" /><path
           transform="matrix(2.6757,-2.2122,2.2122,2.6757,-4286.5,5144)"
           d="m 1912.2,-248.9 a 4.10375,5.3664654 0 1 1 -8.2075,0 4.10375,5.3664654 0 1 1 8.2075,0 z"
           fill="#ffffff"
           fill-opacity="0.92021"
           fill-rule="evenodd"
           id="path9271"
           style="stroke-width:2.21454" /><path
           transform="matrix(1.5761,-1.303,1.303,1.5761,-2414.9,3165.1)"
           d="m 1912.2,-248.9 a 4.10375,5.3664654 0 1 1 -8.2075,0 4.10375,5.3664654 0 1 1 8.2075,0 z"
           fill="#ffffff"
           fill-opacity="0.92021"
           fill-rule="evenodd"
           id="path9273"
           style="stroke-width:2.21454" /><path
           d="m 272.31,199.76 c -10.881,-6.487 -22.544,-6.889 -26.052,-1.007 l -6.847,11.429 c -3.51,5.88 2.447,15.859 13.328,22.347 10.882,6.488 22.583,7.039 26.09,1.156 l 6.847,-11.429 c 3.51,-5.88 -2.484,-16.008 -13.365,-22.496 z"
           fill="none"
           stroke="#000000"
           stroke-width="6.61626"
           id="path9275" /><path
           transform="matrix(0.76998,0,0,0.76998,-100.11,-3.3822)"
           d="m 513.1,259.12 c -10.479,2.458 -19.946,8.675 -28.74,23.576 l -0.675,0.898 c -1.978,1.922 -6.827,1.499 -11.227,-1.123 -4.481,-2.671 -6.971,-6.565 -6.062,-9.205 0.251,-0.429 0.898,-1.572 0.898,-1.572 11.069,-18.362 25.835,-28.701 41.314,-32.333 5.981,-1.403 11.892,-1.97 17.738,-1.796 0.143,0.004 0.294,-0.006 0.381,0.002 l 6.264,-1.691 0.561,4.563 5.193,1.031 -5.017,6.514 4.135,6.021 -3.995,2.477 -1.123,4.928 -6.637,-3.114 c -4.483,-0.249 -8.899,-0.141 -13.011,0.824 z"
           fill="#ccab7f"
           fill-rule="evenodd"
           stroke="#000000"
           stroke-width="6.61626"
           id="path9277" /><path
           transform="matrix(0.76998,0,0,0.76998,-100.11,-3.3822)"
           d="m 475.41,261.18 c -0.28021,12.349 5.4441,19.469 8.9813,20.208"
           fill="none"
           stroke="#000000"
           stroke-linecap="round"
           stroke-opacity="0.68617"
           stroke-width="3.31315"
           id="path9279" /><path
           transform="matrix(0.76998,0,0,0.76998,-100.11,-3.3822)"
           d="m 486.06,251.84 c -1.8782,12.208 2.8747,20.011 6.2869,21.202"
           fill="none"
           stroke="#000000"
           stroke-linecap="round"
           stroke-opacity="0.68617"
           stroke-width="3.31315"
           id="path9281" /><path
           transform="matrix(0.76998,0,0,0.76998,-100.11,-3.3822)"
           d="m 498.36,243.31 c -4.199,11.616 -1.0411,20.189 2.0772,22.016"
           fill="none"
           stroke="#000000"
           stroke-linecap="round"
           stroke-opacity="0.68617"
           stroke-width="3.31315"
           id="path9283" /><path
           transform="matrix(0.76998,0,0,0.76998,-100.11,-3.3822)"
           d="m 511.77,238.56 c -6.3013,10.624 -4.8054,19.637 -2.088,22.015"
           fill="none"
           stroke="#000000"
           stroke-linecap="round"
           stroke-opacity="0.68617"
           stroke-width="3.31315"
           id="path9285" /><path
           transform="matrix(0.76998,0,0,0.76998,-100.11,-3.3822)"
           d="m 533.08,235.77 -6.063,1.796 a 1.1407,1.1407 0 0 0 0,-0.224 1.1407,1.1407 0 0 0 0,-0.224 1.1407,1.1407 0 0 0 0,-0.224 1.1407,1.1407 0 0 0 -0.223,-0.224 1.1407,1.1407 0 0 0 -0.222,-0.225 1.1407,1.1407 0 0 0 -0.223,-0.224 1.1407,1.1407 0 0 0 -0.223,0 1.1407,1.1407 0 0 0 -0.222,0 1.1407,1.1407 0 0 0 -0.223,0 1.1407,1.1407 0 0 0 -0.223,0.224 1.1407,1.1407 0 0 0 -0.223,0 1.1407,1.1407 0 0 0 -0.222,0.225 c -0.266,0.296 -0.424,0.602 -0.676,0.898 -1.195,0.05 -2.382,0.161 -3.592,0.224 l 0.675,1.796 c -0.984,0.088 -1.641,0.478 -2.47,0.898 -3.281,1.666 0.596,1.223 1.123,2.246 0.1,0.145 -2.602,1.059 -2.695,1.347 -0.287,0.871 0.912,2.572 0.676,3.368 -0.302,0.94 -2.213,1.235 -2.47,2.021 -0.258,0.8 0.895,1.807 2.022,2.694 -0.388,3.095 -0.101,5.6 1.122,7.185 a 1.1407,1.1407 0 0 0 0.223,0.224 1.1407,1.1407 0 0 0 0.222,0 1.1407,1.1407 0 0 0 0.223,0.225 1.1407,1.1407 0 0 0 0.223,0 1.1407,1.1407 0 0 0 0.223,0 1.1407,1.1407 0 0 0 0.222,-0.225 1.1407,1.1407 0 0 0 0.223,0 1.1407,1.1407 0 0 0 0.223,-0.224 1.1407,1.1407 0 0 0 0.222,-0.224 1.1407,1.1407 0 0 0 0,-0.224 1.1407,1.1407 0 0 0 0,-0.224 1.1407,1.1407 0 0 0 0,-0.225 1.1407,1.1407 0 0 0 0,-0.224 1.1407,1.1407 0 0 0 -0.222,-0.224 c -0.288,-0.371 -0.525,-1.131 -0.676,-2.021 0.568,0.193 2.354,0.896 2.471,1.123 0.215,0.422 0.467,0.714 0.675,1.123 1.035,0.014 2.098,-0.058 3.143,0 l 6.736,3.143 1.123,-4.939 3.816,-2.47 -4.04,-6.063 4.938,-6.511 -5.163,-0.898 -0.446,-4.716 z"
           fill-opacity="0.68627"
           id="path9287"
           style="stroke-width:2.21454" /><g
           transform="matrix(0.13957153,0.30066004,-0.29369437,0.1383647,-103.34994,153.56941)"
           fill-rule="evenodd"
           id="g9297"
           style="stroke-width:2.21454"><path
             d="m 718.8,-1014.3 -59.895,-64.69 6.769,45.1 -31.846,-60.99 -18.293,51.55 -2.229,-54.04 -91.399,119.2 60.136,-118.52 -64.72,17.52 62.54,-49.84 -44.982,-9.94 45.245,-10.66 -97.426,-43.93 104.79,23.43 -32.361,-39.29 41.462,17.33 -4.566,-48.69 30.643,48.5 17.89,-98.7 5.758,98.68 36.338,-39.11 -3.998,29.42 50.732,-30.04 -53.552,71.36 79.291,-1.3 -57.554,25.9 100.93,60.74 -129.49,-41.73 z"
             fill="#aa0000"
             stroke="#800000"
             stroke-width="4.3573"
             id="path9289" /><path
             d="m 641.12,-1257.8 -13.562,66.56 a 5.0051,5.0051 0 0 1 -9.125,1.69 l -19.5,-30.87 2.625,27.9 a 5.0051,5.0051 0 0 1 -7.188,4.94 l -28.5,-14.22 25.344,28.37 a 5.0051,5.0051 0 0 1 -4.812,8.22 l -70.375,-15.56 65.969,26.53 a 5.0051,5.0051 0 0 1 -0.531,9.47 l -29.531,8.22 28.406,2.59 a 5.0051,5.0051 0 0 1 2.656,8.88 l -43.625,34.75 41.344,-11.19 a 5.0051,5.0051 0 0 1 5.781,7.09 l -35.719,70.41 58.562,-76.37 a 5.0051,5.0051 0 0 1 8.969,2.81 l 1.156,28.22 9.656,-27.19 a 5.0051,5.0051 0 0 1 9.157,-0.63 l 18.031,34.54 -2.344,-15.6 a 5.0051,5.0051 0 0 1 8.594,-4.16 l 37.094,40.07 -35.156,-72.5 a 5.0051,5.0051 0 0 1 5.562,-7.07 l 91.531,19.88 -66.062,-29.47 a 5.0051,5.0051 0 0 1 -0.031,-9.12 l 35.406,-15.91 -54.969,0.91 a 5.0051,5.0051 0 0 1 -3.969,-8.19 l 53.562,-65.28 -43.969,31.22 a 5.0051,5.0051 0 0 1 -7.875,-4.79 l 1.875,-13.75 -25.594,27.54 a 5.0051,5.0051 0 0 1 -8.656,-3.41 l -0.188,-65.53 z"
             fill="#e44f30"
             filter="url(#a)"
             id="path9291"
             style="stroke-width:3.37652" /><path
             d="m 637.72,-1223.6 -6.719,33 a 8.5144,8.5144 0 0 1 -15.531,2.84 l -11.656,-18.47 1.25,13.35 a 8.5144,8.5144 0 0 1 -12.281,8.41 l -12.031,-6 13.094,14.65 a 8.5144,8.5144 0 0 1 -8.187,14 l -28.844,-6.37 26.5,10.65 a 8.5144,8.5144 0 0 1 -0.907,16.1 l -11.094,3.09 9.344,0.84 a 8.5144,8.5144 0 0 1 4.531,15.13 l -30.406,24.22 25.031,-6.78 a 8.5144,8.5144 0 0 1 9.813,12.06 l -18.531,36.56 35.469,-46.28 a 8.5144,8.5144 0 0 1 15.25,4.84 l 0.406,10.1 3.594,-10.1 a 8.5144,8.5144 0 0 1 15.562,-1.09 l 9.281,17.75 a 8.5144,8.5144 0 0 1 14.5,-3.72 l 21.031,22.72 -24.844,-51.25 a 8.5144,8.5144 0 0 1 9.469,-12.03 l 58.219,12.65 -34.938,-15.59 a 8.5144,8.5144 0 0 1 -0.031,-15.53 l 19.875,-8.94 -37.938,0.63 a 8.5144,8.5144 0 0 1 -6.75,-13.91 l 36.969,-45.06 -22.625,16.06 a 8.5144,8.5144 0 0 1 -13.375,-8.09 l 0.375,-2.78 -18.031,19.4 a 8.5144,8.5144 0 0 1 -14.75,-5.75 z"
             fill="#ffcc00"
             filter="url(#a)"
             id="path9293"
             style="stroke-width:3.37652" /><path
             d="m 667,-1190 -8.438,9.06 a 16.742,16.742 0 0 1 -24.062,0.44 16.742,16.742 0 0 1 -24.812,-1.25 16.742,16.742 0 0 1 -6.781,5.13 16.742,16.742 0 0 1 -7.156,21 16.742,16.742 0 0 1 -2.594,16.4 16.742,16.742 0 0 1 -2.844,23.25 l -3.875,3.09 a 16.742,16.742 0 0 1 10.75,8.97 l 2.844,-3.72 a 16.742,16.742 0 0 1 25.125,-1.62 16.742,16.742 0 0 1 23.531,6.56 l 4.188,8.03 a 16.742,16.742 0 0 1 7.906,-1.03 l -6.844,-14.09 a 16.742,16.742 0 0 1 18.625,-23.66 l 8.938,1.94 a 16.742,16.742 0 0 1 1.343,-12.56 l -6.718,0.12 a 16.742,16.742 0 0 1 -13.219,-27.37 l 11.875,-14.47 a 16.742,16.742 0 0 1 -7.8,-4.1 z"
             fill="#ffcc00"
             filter="url(#a)"
             id="path9295"
             style="stroke-width:3.37652" /></g></g><path
         style="fill:#666666;stroke:#325fdf;stroke-width:2.15785;stroke-linecap:round;stroke-opacity:0;stop-color:#000000"
         d="m 907.59952,565.18343 c -1.19421,-0.25512 -5.28007,-0.87307 -9.07968,-1.3732 l -6.90838,-0.90935 15.43404,-30.34336 c 8.48872,-16.68884 15.18013,-30.55841 14.86978,-30.82125 -0.31034,-0.26284 -4.47258,-1.79723 -9.24942,-3.40975 -4.77684,-1.61252 -12.04049,-4.2763 -16.14144,-5.91952 l -7.45629,-2.98767 -5.67712,11.86452 c -3.12242,6.52549 -9.81149,20.80456 -14.86459,31.73128 l -9.18747,19.86678 -15.36358,-7.98249 c -8.44996,-4.39037 -17.16703,-9.42209 -19.37126,-11.1816 l -4.0077,-3.19912 15.41594,-31.61044 15.41594,-31.61043 -3.3981,-2.3093 c -6.8866,-4.68004 -29.21645,-27.37368 -35.22288,-35.79673 -7.08234,-9.93183 -14.21579,-23.61046 -16.34811,-31.34805 -1.33535,-4.84561 -0.97946,-6.09245 4.21438,-14.76487 9.46021,-15.79622 18.36779,-20.12576 41.78722,-20.31074 9.90633,-0.0783 19.08681,0.78487 26.36355,2.47861 l 11.16452,2.59867 -7.63489,10.40781 c -14.43325,19.67525 -21.60388,32.54151 -22.32632,40.06005 -2.75864,28.70971 47.46322,62.15474 77.98311,51.93253 7.15712,-2.39718 10.49921,-5.94025 22.3403,-23.68369 5.84435,-8.75754 12.19425,-17.82772 14.11087,-20.15596 l 3.4848,-4.23316 8.024,10.74703 c 9.43283,12.63396 12.97779,19.33884 16.3405,30.90614 4.28778,14.74943 3.39498,17.26075 -20.02367,56.3243 -19.88134,33.16312 -21.4536,35.34399 -28.08079,38.95097 -9.15274,4.98155 -27.4942,8.02882 -36.60726,6.08199 z"
         id="path9690" /></g></g></svg>
