<?xml version="1.0" encoding="UTF-8" standalone="no"?>
<svg
   width="128"
   height="128"
   viewBox="0 0 128 128"
   version="1.1"
   id="svg6074"
   sodipodi:docname="player.svg"
   inkscape:version="1.2.2 (732a01da63, 2022-12-09)"
   xml:space="preserve"
   xmlns:inkscape="http://www.inkscape.org/namespaces/inkscape"
   xmlns:sodipodi="http://sodipodi.sourceforge.net/DTD/sodipodi-0.dtd"
   xmlns="http://www.w3.org/2000/svg"
   xmlns:svg="http://www.w3.org/2000/svg"><defs
     id="defs6078" /><sodipodi:namedview
     id="namedview6076"
     pagecolor="#ffffff"
     bordercolor="#000000"
     borderopacity="0.25"
     inkscape:showpageshadow="2"
     inkscape:pageopacity="0.0"
     inkscape:pagecheckerboard="0"
     inkscape:deskcolor="#d1d1d1"
     showgrid="false"
     inkscape:zoom="2.2898106"
     inkscape:cx="-52.406081"
     inkscape:cy="56.336537"
     inkscape:window-width="1920"
     inkscape:window-height="1009"
     inkscape:window-x="-8"
     inkscape:window-y="-8"
     inkscape:window-maximized="1"
     inkscape:current-layer="svg6074" /><g
     fill-rule="evenodd"
     stroke-linecap="round"
     stroke-linejoin="round"
     id="g421"
     style="stroke:#000000;stroke-width:3.03105"
     transform="matrix(0.32709051,0,0,0.33277357,0.41422651,-8.7665687)"><path
       d="m 335.08,258.61 22.934,3.4801 -8.8792,43.789 -14.054,-47.269 z"
       fill="#4b3c21"
       id="path393"
       style="stroke-width:2.10083" /><path
       d="M 390.79,288.29 C 354.398,269.98 326.207,253.858 273.81,242.016 129.04,232.9879 66.01,245.9203 3.4,258.164 c 66.142,58.285 212.64,54.302 387.38,30.126 z"
       fill="#b28f53"
       id="path395"
       style="stroke-width:2.10083" /><path
       d="m 375.51,285.03 c -33.807,-17.009 -54.008,-28.156 -102.68,-39.157 -123.62,-7.8682 -200.74,2.9417 -258.12,13.199 86.167,31.317 265.02,30.851 360.8,25.958 z"
       fill="#4b3c21"
       id="path397"
       style="stroke-width:2.10083" /><path
       d="m 160.8,261.18 0.735,5.5523 45.771,19.539 12.09,0.3931"
       fill="#67522e"
       id="path399"
       style="stroke-width:2.10083" /><g
       fill="#7d6438"
       id="g405"
       style="stroke-width:2.10083"><path
         d="m 264.83,287.51 -51.277,-23.544 -52.904,-2.724 58.796,25.444 c 14.665,0.57761 30.017,0.70416 45.385,0.82483 z"
         id="path401"
         style="stroke-width:3.03105" /><path
         d="m 49.492,316.19 c 3.8866,0.79947 301.52,16.354 309.5,15.9 -8.5092,8.737 -20.136,19.983 -29.033,21.514 -28.634,4.9295 -120.62,10.977 -221.59,-3.4716 -25.188,-10.957 -44.246,-22.654 -58.872,-33.943 z"
         id="path403"
         style="stroke-width:3.03105" /></g><path
       d="m 20.281,282.48 c 5.6706,3.5933 354.43,26.224 356.23,26.031 -5.4254,7.811 -10.886,16.708 -17.906,23.915 -21.816,6.1466 -259.49,13.659 -309.11,-16.236 -13.493,-10.415 -22.401,-24.991 -29.21,-33.71 z"
       fill="#745c33"
       id="path407"
       style="stroke-width:2.10083" /><path
       d="m 3.2193,258.14 c 72.218,28.871 217.19,40.014 387.54,30.351 0,0 -5.033,7.177 -14.197,20.371 -56.606,17.901 -334.3,1.1218 -355.8,-26.009 C 7.1543,265.429 3.3833,257.419 3.2193,258.14 Z"
       fill="#6e5831"
       id="path409"
       style="stroke-width:2.10083" /><path
       d="m 273.12,246 c 0,0 4.8071,21.74 -7.9258,41.352 51.312,1.1326 109.93,-2.3901 109.93,-2.3901 -30.26,-16.159 -66.083,-31.938 -102,-38.962 z"
       fill="#43341d"
       id="path411"
       style="stroke-width:2.10083" /><g
       transform="matrix(0.98934,0.37028,-0.23113,1.5231,356.46,404.9)"
       fill="#4b3c21"
       stroke-width="2.30057"
       id="g419"><rect
         transform="matrix(0.96961,-0.24464,-0.12817,0.99175,0,0)"
         x="-78.216003"
         y="-102.78"
         width="45.528"
         height="4.9017"
         id="rect413"
         style="stroke-width:2.30057" /><path
         d="m -62.665,-82.8 44.145,-11.138 -3.8537,-0.3374 -45.471,10.696 5.1795,0.7794 z"
         id="path415"
         style="stroke-width:2.30057" /><path
         d="m -62.665,-82.8 -0.6491,4.8664 -4.264,-0.8425 -0.2664,-4.8032 5.1795,0.7794 z"
         id="path417"
         style="stroke-width:2.30057" /></g></g></svg>
