<?xml version="1.0" encoding="UTF-8" standalone="no"?>
<svg
   width="64"
   height="24"
   viewBox="0 0 64 24"
   version="1.1"
   id="svg526"
   sodipodi:docname="proj.svg"
   xml:space="preserve"
   inkscape:version="1.2.2 (732a01da63, 2022-12-09)"
   xmlns:inkscape="http://www.inkscape.org/namespaces/inkscape"
   xmlns:sodipodi="http://sodipodi.sourceforge.net/DTD/sodipodi-0.dtd"
   xmlns="http://www.w3.org/2000/svg"
   xmlns:svg="http://www.w3.org/2000/svg"><sodipodi:namedview
     id="namedview528"
     pagecolor="#ffffff"
     bordercolor="#000000"
     borderopacity="0.25"
     inkscape:showpageshadow="2"
     inkscape:pageopacity="0.0"
     inkscape:pagecheckerboard="0"
     inkscape:deskcolor="#d1d1d1"
     showgrid="false"
     inkscape:zoom="0.90509668"
     inkscape:cx="362.39223"
     inkscape:cy="-185.61553"
     inkscape:window-width="1920"
     inkscape:window-height="1009"
     inkscape:window-x="-8"
     inkscape:window-y="-8"
     inkscape:window-maximized="1"
     inkscape:current-layer="svg526"><inkscape:page
       x="0"
       y="0"
       width="64"
       height="24"
       id="page373" /><inkscape:page
       x="74"
       y="0"
       width="3413.3333"
       height="3413.3333"
       id="page375" /></sodipodi:namedview><defs
     id="defs520"><radialGradient
       id="g"><stop
         offset="0"
         stop-color="#fff"
         id="stop515" /><stop
         offset="1"
         stop-color="#a0f"
         id="stop517" /></radialGradient><filter
       id="a"
       color-interpolation-filters="sRGB"
       x="-0.085191711"
       y="-0.086144243"
       width="1.1703834"
       height="1.1722885"><feGaussianBlur
         stdDeviation="3.42208"
         id="feGaussianBlur9258" /></filter><clipPath
       clipPathUnits="userSpaceOnUse"
       id="clipPath329"><path
         d="M 0,2560 H 2560 V 0 H 0 Z"
         id="path327" /></clipPath></defs><g
     id="g323"
     transform="matrix(0.01426069,0,0,-0.01007987,9.5616377,25.397189)"
     style="stroke-width:111.209"><g
       id="g325"
       clip-path="url(#clipPath329)"
       style="stroke-width:111.209"><g
         id="g331"
         transform="translate(2073.8689,1052.6035)"
         style="stroke-width:111.209"><path
           d="m 0,0 c 13.739,-35.616 21.371,-74.031 21.371,-114.482 0,-159.765 -118.044,-291.547 -271.704,-313.68 -14.756,-2.036 -30.02,-3.054 -45.285,-3.054 -31.291,0 -61.82,4.58 -90.568,13.229 v -108.884 c -119.316,-68.944 -257.458,-108.377 -405.267,-108.377 -140.432,0 -272.213,35.871 -387.457,98.455 V -410.1 c -35.108,-13.483 -73.269,-21.116 -113.211,-21.116 -13.484,0 -26.712,0.764 -39.432,2.29 -156.46,19.335 -277.557,152.643 -277.557,314.444 0,43.504 8.651,84.972 24.424,122.878 9.922,23.15 22.388,44.775 36.889,64.365 -23.152,56.477 -40.197,115.754 -50.373,177.574 -7.378,43.249 -10.94,88.023 -10.94,133.562 0,450.297 364.817,815.367 815.369,815.367 450.04,0 815.112,-365.07 815.112,-815.367 0,-38.67 -2.545,-76.576 -8.142,-113.719 C 3.817,201.235 -14.247,135.344 -39.942,72.761 -23.659,50.626 -10.175,25.95 0,0"
           style="fill:#efefef;fill-opacity:1;fill-rule:nonzero;stroke:none;stroke-width:111.209"
           id="path333" /></g><g
         id="g335"
         transform="translate(1069.2251,623.1683)"
         style="stroke-width:111.209"><path
           d="m 0,0 c 16.792,-60.039 25.186,-121.095 20.607,-182.662 -27.222,6.614 -53.934,14.501 -79.884,23.914 -39.94,14.246 -78.101,31.546 -114.99,51.39 V 19.335 c -35.108,-13.483 -73.268,-21.116 -113.21,-21.116 -13.484,0 -26.712,0.764 -39.432,2.29 -156.46,19.335 -277.557,152.643 -277.557,314.444 0,43.504 8.651,84.972 24.424,122.878 9.922,23.15 22.387,44.776 36.889,64.365 -23.152,56.477 -40.197,115.754 -50.374,177.574 -7.377,43.249 -10.939,88.023 -10.939,133.563 0,450.296 364.817,815.366 815.368,815.366 43.248,0 85.735,-3.307 127.203,-9.922 -390.003,-61.056 -688.166,-398.397 -688.166,-805.444 0,-45.54 3.562,-90.314 10.939,-133.563 10.177,-61.82 27.222,-121.097 50.373,-177.574 -14.501,-19.589 -26.967,-41.215 -36.889,-64.365 -15.773,-37.906 -24.423,-79.374 -24.423,-122.878 0,-161.801 121.097,-295.109 277.556,-314.444 11.194,-1.271 22.643,-2.035 34.344,-2.035 1.781,-0.255 3.308,-0.255 5.089,-0.255 11.193,0 22.387,0.509 33.072,1.781"
           style="fill:#dddddd;fill-opacity:1;fill-rule:nonzero;stroke:none;stroke-width:111.209"
           id="path337" /></g><g
         id="g339"
         transform="translate(1069.2251,623.1683)"
         style="stroke-width:111.209"><path
           d="m 0,0 c 16.792,-60.039 25.186,-121.095 20.607,-182.662 -27.222,6.614 -53.934,14.756 -79.884,23.914 -39.687,14.246 -78.101,31.546 -114.99,51.39 V 19.335 c -35.108,-13.483 -73.268,-21.116 -113.21,-21.116 -13.484,0 -26.712,0.764 -39.432,2.29 -156.46,19.335 -277.557,152.643 -277.557,314.444 0,43.504 8.651,84.972 24.424,122.878 9.922,23.15 22.387,44.776 36.889,64.365 -23.152,56.477 -40.197,115.754 -50.374,177.574 -7.377,43.249 -10.939,88.023 -10.939,133.563 0,450.296 364.817,815.366 815.368,815.366 43.248,0 85.735,-3.307 127.203,-9.922 -390.003,-61.056 -688.166,-398.397 -688.166,-805.444 0,-45.54 3.562,-90.314 10.939,-133.563 10.177,-61.82 27.222,-121.097 50.373,-177.574 -14.501,-19.589 -26.967,-41.215 -36.889,-64.365 -15.773,-37.906 -24.423,-79.374 -24.423,-122.878 0,-161.801 121.097,-295.109 277.556,-314.444 11.194,-1.271 22.643,-2.035 34.344,-2.035 1.781,-0.255 3.308,-0.255 5.089,-0.255 11.193,0 22.387,0.509 33.072,1.781"
           style="fill:#d3d3d3;fill-opacity:1;fill-rule:nonzero;stroke:none;stroke-width:111.209"
           id="path341" /></g><g
         id="g343"
         transform="translate(1280.0006,2328.1909)"
         style="stroke-width:111.209"><path
           d="m 0,0 c -491.644,0 -891.625,-399.981 -891.625,-891.624 0,-50.213 4.078,-99.526 12.121,-146.57 8.641,-52.621 22.213,-104.849 40.413,-155.514 -8.143,-14.037 -15.45,-28.613 -21.862,-43.621 -20.442,-49.051 -30.672,-100.202 -30.672,-152.661 0,-198.152 148.1,-365.904 344.494,-390.205 16.522,-2.029 32.906,-3.054 48.765,-3.054 12.355,0 24.665,0.584 36.903,1.749 v -30.999 c 0,-27.981 15.313,-53.72 39.904,-67.072 129.665,-70.404 276.294,-107.617 424.035,-107.617 155.947,0 309.283,41.073 443.43,118.777 23.561,13.648 38.067,38.813 38.067,66.042 v 19.38 c 4.723,-0.173 9.444,-0.26 14.168,-0.26 18.279,0 37.047,1.296 55.783,3.851 192.753,27.696 337.7,195.072 337.7,389.408 0,48.562 -8.918,96.284 -26.507,141.839 -7.307,18.837 -16.018,37.015 -26.052,54.39 20.782,57.849 35.463,117.503 43.747,177.861 5.818,39.982 8.812,82 8.812,124.276 C 891.624,-399.981 491.643,0 0,0 m 0,-76.322 c 450.195,0 815.303,-365.107 815.303,-815.302 0,-38.717 -2.701,-76.759 -8.103,-113.899 -9.454,-68.88 -27.687,-134.834 -53.349,-197.186 16.432,-22.285 29.939,-46.821 40.067,-72.931 13.732,-35.566 21.385,-74.058 21.385,-114.35 0,-159.819 -118.177,-291.727 -271.693,-313.787 -14.856,-2.026 -30.163,-3.151 -45.469,-3.151 -31.289,0 -61.676,4.728 -90.49,13.281 v -108.722 C 288.35,-1871.474 150.14,-1910.866 2.476,-1910.866 c -140.461,0 -272.368,35.791 -387.618,98.367 v 126.73 c -35.116,-13.505 -73.156,-21.159 -113.224,-21.159 -13.282,0 -26.561,0.901 -39.392,2.477 -156.444,19.358 -277.546,152.615 -277.546,314.461 0,43.443 8.779,84.862 24.536,122.678 9.904,23.184 22.285,44.794 36.917,64.603 -23.186,56.274 -40.294,115.7 -50.424,177.376 -7.427,43.444 -11.029,88.013 -11.029,133.709 0,450.195 364.884,815.302 815.304,815.302"
           style="fill:#000000;fill-opacity:1;fill-rule:nonzero;stroke:none;stroke-width:111.209"
           id="path345" /></g><g
         id="g347"
         transform="translate(1200.9509,1324.5621)"
         style="stroke-width:111.209"><path
           d="m 0,0 c 0,-126.453 -102.511,-228.964 -228.964,-228.964 -126.454,0 -228.964,102.511 -228.964,228.964 0,126.453 102.51,228.964 228.964,228.964 C -102.511,228.964 0,126.453 0,0"
           style="fill:#000000;fill-opacity:1;fill-rule:nonzero;stroke:none;stroke-width:111.209"
           id="path349" /></g><g
         id="g351"
         transform="translate(1808.0402,1324.5621)"
         style="stroke-width:111.209"><path
           d="m 0,0 c 0,-126.453 -102.511,-228.964 -228.964,-228.964 -126.454,0 -228.964,102.511 -228.964,228.964 0,126.453 102.51,228.964 228.964,228.964 C -102.511,228.964 0,126.453 0,0"
           style="fill:#000000;fill-opacity:1;fill-rule:nonzero;stroke:none;stroke-width:111.209"
           id="path353" /></g><g
         id="g355"
         transform="translate(1241.2029,395.9851)"
         style="stroke-width:111.209"><path
           d="M 0,0 C -12.205,81.483 0.597,162.592 24.928,241.685 28.764,254.09 47.631,253.897 51.39,241.684 67.997,194.211 121.769,-46.992 30.555,-30.552 14.674,-27.385 2.998,-14.941 0,0"
           style="fill:#000000;fill-opacity:1;fill-rule:nonzero;stroke:none;stroke-width:111.209"
           id="path357" /></g><g
         id="g359"
         transform="translate(1089.8318,440.5059)"
         style="stroke-width:111.209"><path
           d="m 0,0 c -0.255,-5.341 -0.762,-10.43 -1.272,-15.773 -6.105,-44.011 -70.47,-43.502 -76.321,0 -1.527,13.23 -2.29,26.459 -2.29,39.687 -1.018,52.917 6.869,105.579 21.116,157.222 1.526,5.343 3.052,10.686 4.579,16.028 2.799,8.141 11.448,12.465 19.589,9.922 4.834,-1.527 8.396,-5.343 9.922,-9.922 1.527,-4.834 2.799,-9.668 4.07,-14.502 C -3.815,122.623 4.579,61.567 0,0"
           style="fill:#000000;fill-opacity:1;fill-rule:nonzero;stroke:none;stroke-width:111.209"
           id="path361" /></g><g
         id="g363"
         transform="translate(1470.1671,424.9876)"
         style="stroke-width:111.209"><path
           d="m 0,0 c -11.989,72.287 -2.068,143.553 24.928,212.682 3.164,7.306 11.649,10.667 18.955,7.507 3.494,-1.512 6.099,-4.272 7.507,-7.507 C 66.723,177.235 73.451,141.788 78.14,106.341 82.05,70.894 83.617,35.446 76.321,0 71.983,-21.076 51.382,-34.644 30.306,-30.307 14.596,-27.073 3.06,-14.768 0,0"
           style="fill:#000000;fill-opacity:1;fill-rule:nonzero;stroke:none;stroke-width:111.209"
           id="path365" /></g><g
         id="g367"
         transform="translate(1288.0132,1082.8777)"
         style="stroke-width:111.209"><path
           d="m 0,0 c 20.735,-36.578 31.434,-74.601 38.578,-114.482 5.996,-42.139 15.644,-79.416 -21.787,-114.482 -45.482,-41.582 -104.102,9.558 -103.843,57.243 -0.205,19.078 2.694,38.159 5.735,57.239 C -75.397,-84.873 -47.884,54.98 0,0"
           style="fill:#000000;fill-opacity:1;fill-rule:nonzero;stroke:none;stroke-width:111.209"
           id="path369" /></g></g></g></svg>
